<svg width="20" height="16" viewBox="0 0 20 16" fill="none" xmlns="http://www.w3.org/2000/svg">
<path d="M0.442105 6.59474L6.61053 0.426316C7.17895 -0.142105 8.12632 -0.142105 8.69474 0.426316C9.26316 0.994737 9.26316 1.9421 8.69474 2.51053L5.05263 6.17368H18.5263C19.3474 6.17368 20 6.82631 20 7.64737C20 8.46842 19.3474 9.12105 18.5263 9.12105H5.05263L8.69474 12.7632C9.26316 13.3316 9.26316 14.2789 8.69474 14.8474C8.4 15.1421 8.02105 15.2895 7.64211 15.2895C7.26316 15.2895 6.88421 15.1421 6.58947 14.8474L0.442105 8.7C0.168421 8.42631 -1.49012e-07 8.04737 -1.49012e-07 7.64737C-1.49012e-07 7.24737 0.147368 6.86842 0.442105 6.59474Z" fill="black"/>
</svg>