<svg width="24" height="24" viewBox="0 0 24 24" fill="none" xmlns="http://www.w3.org/2000/svg">
<path d="M17.4521 10.6852V7.63442C17.4521 6.40529 16.8988 5.22651 15.9138 4.35739C14.9289 3.48827 13.593 3 12.2 3C10.807 3 9.47115 3.48827 8.48618 4.35739C7.50122 5.22651 6.94787 6.40529 6.94787 7.63442V10.6852C6.42908 10.691 5.93376 10.8769 5.56918 11.2026C5.2046 11.5283 5.00011 11.9677 5 12.4255L5.00003 19.5317C5.00003 21.4894 19.4 21.4894 19.4 19.5317L19.4 12.4255C19.3999 11.9677 19.1954 11.5284 18.8308 11.2026C18.4662 10.8769 17.9709 10.691 17.4521 10.6852ZM9.34351 10.6841V7.63442C9.34351 6.96593 9.64446 6.32482 10.1802 5.85213C10.7159 5.37944 11.4424 5.11388 12.2 5.11388C12.9576 5.11388 13.6841 5.37944 14.2198 5.85213C14.7555 6.32482 15.0565 6.96593 15.0565 7.63442V10.6841H9.34351Z" fill="black"/>
</svg>