<svg width="33" height="32" viewBox="0 0 33 32" fill="none" xmlns="http://www.w3.org/2000/svg">
<g clip-path="url(#clip0_2403_316)">
<path d="M26.0579 14.5947L19.8895 8.42632C19.3211 7.85789 18.3737 7.85789 17.8053 8.42632C17.2368 8.99474 17.2368 9.9421 17.8053 10.5105L21.4474 14.1737H7.97368C7.15263 14.1737 6.5 14.8263 6.5 15.6474C6.5 16.4684 7.15263 17.121 7.97368 17.121H21.4474L17.8053 20.7632C17.2368 21.3316 17.2368 22.2789 17.8053 22.8474C18.1 23.1421 18.4789 23.2895 18.8579 23.2895C19.2368 23.2895 19.6158 23.1421 19.9105 22.8474L26.0579 16.7C26.3316 16.4263 26.5 16.0474 26.5 15.6474C26.5 15.2474 26.3526 14.8684 26.0579 14.5947Z" fill="white"/>
</g>
<defs>
<clipPath id="clip0_2403_316">
<rect width="32" height="32" fill="white" transform="translate(0.5)"/>
</clipPath>
</defs>
</svg>